<?xml version="1.0" encoding="iso-8859-1"?>
<!-- Generator: Adobe Illustrator 19.0.0, SVG Export Plug-In . SVG Version: 6.00 Build 0)  -->
<svg version="1.1" id="Capa_1" xmlns="http://www.w3.org/2000/svg" xmlns:xlink="http://www.w3.org/1999/xlink" x="0px" y="0px"
	 viewBox="0 0 512.085 512.085" style="enable-background:new 0 0 512.085 512.085;" xml:space="preserve">
<path style="fill:#546E7A;" d="M181.333,444.405H10.667C4.776,444.405,0,439.629,0,433.738s4.776-10.667,10.667-10.667h160v-74.667
	c0-5.891,4.776-10.667,10.667-10.667c5.891,0,10.667,4.776,10.667,10.667v85.333C192,439.629,187.224,444.405,181.333,444.405z"/>
<path style="fill:#607D8B;" d="M231.04,286.687c-0.976-2.536-2.884-4.604-5.333-5.781l-52.48-25.28
	c-2.444-1.173-5.244-1.372-7.829-0.555c-28.109,8.802-43.761,38.725-34.959,66.834c8.802,28.109,38.725,43.761,66.834,34.959
	c28.109-8.802,43.761-38.725,34.959-66.834c-0.353-1.127-0.743-2.242-1.17-3.343H231.04z"/>
<path style="fill:#455A64;" d="M506.112,253.535l-21.333-10.667c-2.532-1.266-5.464-1.473-8.149-0.576l-28.288,9.429l-49.707-19.883
	c-5.153-2.06-11.026,0.175-13.504,5.141l-32,64c-2.488,4.984-0.722,11.042,4.053,13.909l49.941,29.867l9.429,28.267
	c0.891,2.68,2.809,4.897,5.333,6.165l21.333,10.667c1.483,0.743,3.12,1.131,4.779,1.131c1.214,0.001,2.42-0.208,3.563-0.619
	c2.727-0.966,4.945-2.999,6.144-5.632l53.333-117.333C513.359,262.205,511.191,256.103,506.112,253.535z"/>
<path style="fill:#CFD8DC;" d="M391.061,191.029L141.504,70.858c-15.922-7.67-35.047-0.98-42.717,14.942
	c-0.077,0.16-0.153,0.321-0.227,0.482l-46.123,99.947c-7.222,15.864-0.496,34.594,15.168,42.24l249.6,120.149
	c15.922,7.67,35.047,0.98,42.717-14.942c0.077-0.16,0.153-0.321,0.227-0.482l46.123-99.925
	C413.488,217.393,406.742,198.659,391.061,191.029z"/>
<circle style="fill:#FAFAFA;" cx="181.333" cy="305.738" r="10.667"/>
<path d="M331.051,351.797c-4.811-0.009-9.558-1.103-13.888-3.2L67.627,228.447c-15.679-7.621-22.419-26.356-15.189-42.219
	L98.56,86.282c7.413-16.043,26.429-23.039,42.472-15.626c0.158,0.073,0.316,0.147,0.472,0.223l249.6,120.149
	c15.679,7.621,22.419,26.355,15.189,42.219l-46.187,99.947c-3.585,7.803-10.17,13.827-18.261,16.704
	C338.382,351.142,334.731,351.784,331.051,351.797z M127.616,89.034c-1.228-0.003-2.448,0.206-3.605,0.619
	c-2.695,0.971-4.886,2.985-6.08,5.589l-46.123,99.925c-2.365,5.236-0.158,11.405,4.992,13.952L326.4,329.29
	c2.574,1.247,5.541,1.409,8.235,0.448c2.695-0.971,4.886-2.985,6.08-5.589l46.123-99.925c2.426-5.281,0.178-11.532-5.056-14.059
	L132.267,90.101l0,0C130.817,89.399,129.227,89.034,127.616,89.034z"/>
<path d="M181.333,359.071c-29.384,0.068-53.261-23.697-53.329-53.081c-0.054-23.331,15.098-43.976,37.372-50.919
	c5.689-1.53,11.541,1.842,13.07,7.531c1.439,5.351-1.46,10.913-6.67,12.799c-16.872,5.261-26.285,23.203-21.024,40.075
	s23.203,26.285,40.075,21.024c16.872-5.261,26.285-23.203,21.024-40.075c-0.221-0.709-0.467-1.409-0.736-2.101
	c-2.18-5.473,0.49-11.677,5.962-13.857c5.473-2.18,11.677,0.49,13.857,5.962c0.037,0.092,0.072,0.185,0.106,0.278
	c10.639,27.327-2.889,58.106-30.216,68.745C194.612,357.873,188,359.1,181.333,359.071z"/>
<path d="M181.333,444.405H10.667C4.776,444.405,0,439.629,0,433.738s4.776-10.667,10.667-10.667h160v-74.667
	c0-5.891,4.776-10.667,10.667-10.667c5.891,0,10.667,4.776,10.667,10.667v85.333C192,439.629,187.224,444.405,181.333,444.405z"/>
<path d="M448,391.071c-1.659,0-3.295-0.387-4.779-1.131l-21.333-10.667c-2.532-1.263-4.458-3.481-5.355-6.165l-9.408-28.245
	l-49.941-29.973c-4.937-3.214-6.334-9.822-3.12-14.759c3.048-4.682,9.192-6.219,14.085-3.524l53.333,32
	c2.192,1.308,3.842,3.36,4.651,5.781l9.28,27.733l7.488,3.733l44.501-97.899l-8.192-4.075l-27.733,9.28
	c-2.399,0.78-4.995,0.697-7.339-0.235l-53.333-21.333c-5.542-1.998-8.415-8.111-6.416-13.652c1.998-5.542,8.111-8.415,13.652-6.416
	c0.229,0.083,0.456,0.173,0.679,0.271l49.707,19.883l28.288-9.429c2.689-0.869,5.61-0.663,8.149,0.576l21.333,10.667
	c5.126,2.57,7.302,8.733,4.928,13.952l-53.333,117.333c-1.195,2.641-3.413,4.682-6.144,5.653
	C450.477,390.849,449.243,391.065,448,391.071z"/>
<circle cx="181.333" cy="305.738" r="10.667"/>
<g>
</g>
<g>
</g>
<g>
</g>
<g>
</g>
<g>
</g>
<g>
</g>
<g>
</g>
<g>
</g>
<g>
</g>
<g>
</g>
<g>
</g>
<g>
</g>
<g>
</g>
<g>
</g>
<g>
</g>
</svg>
