<svg id="Color" enable-background="new 0 0 24 24" height="512" viewBox="0 0 24 24" width="512" xmlns="http://www.w3.org/2000/svg"><path d="m22.72 3.66c.18-.34.28-.74.28-1.16 0-1.38-1.12-2.5-2.5-2.5s-2.5 1.12-2.5 2.5 1.12 2.5 2.5 2.5c.42 0 .82-.1 1.16-.28l1.06 1.06c.146.147.338.22.53.22s.384-.073.53-.22c.293-.293.293-.768 0-1.061zm-3.22-1.16c0-.55.45-1 1-1s1 .45 1 1-.45 1-1 1-1-.45-1-1z" fill="#03a9f4"/><path d="m1.75 6h12.5c.965 0 1.75-.785 1.75-1.75v-2.5c0-.965-.785-1.75-1.75-1.75h-12.5c-.965 0-1.75.785-1.75 1.75v2.5c0 .965.785 1.75 1.75 1.75z" fill="#03a9f4"/><path d="m8 0h-6.25c-.965 0-1.75.785-1.75 1.75v2.5c0 .965.785 1.75 1.75 1.75h6.25z" fill="#0393d4"/><g fill="#90a4ae"><path d="m23.25 7.5h-22.5c-.414 0-.75.336-.75.75s.336.75.75.75h22.5c.414 0 .75-.336.75-.75s-.336-.75-.75-.75z"/><path d="m23.25 10.5h-22.5c-.414 0-.75.336-.75.75s.336.75.75.75h22.5c.414 0 .75-.336.75-.75s-.336-.75-.75-.75z"/><path d="m23.25 13.5h-22.5c-.414 0-.75.336-.75.75s.336.75.75.75h22.5c.414 0 .75-.336.75-.75s-.336-.75-.75-.75z"/><path d="m23.25 16.5h-22.5c-.414 0-.75.336-.75.75s.336.75.75.75h22.5c.414 0 .75-.336.75-.75s-.336-.75-.75-.75z"/><path d="m23.25 19.5h-22.5c-.414 0-.75.336-.75.75s.336.75.75.75h22.5c.414 0 .75-.336.75-.75s-.336-.75-.75-.75z"/><path d="m23.25 22.5h-22.5c-.414 0-.75.336-.75.75s.336.75.75.75h22.5c.414 0 .75-.336.75-.75s-.336-.75-.75-.75z"/></g><path d="m12 7.5h-11.25c-.414 0-.75.336-.75.75s.336.75.75.75h11.25z" fill="#7d8f97"/><path d="m12 10.5h-11.25c-.414 0-.75.336-.75.75s.336.75.75.75h11.25z" fill="#7d8f97"/><path d="m12 13.5h-11.25c-.414 0-.75.336-.75.75s.336.75.75.75h11.25z" fill="#7d8f97"/><path d="m12 16.5h-11.25c-.414 0-.75.336-.75.75s.336.75.75.75h11.25z" fill="#7d8f97"/><path d="m12 19.5h-11.25c-.414 0-.75.336-.75.75s.336.75.75.75h11.25z" fill="#7d8f97"/><path d="m12 22.5h-11.25c-.414 0-.75.336-.75.75s.336.75.75.75h11.25z" fill="#7d8f97"/><path d="m18.733.733c-.453.452-.733 1.077-.733 1.767 0 1.38 1.12 2.5 2.5 2.5.42 0 .819-.1 1.16-.28l1.06 1.06c.146.147.338.22.53.22s.384-.073.53-.22l-2.574-2.574c-.181.181-.431.294-.706.294-.55 0-1-.45-1-1 0-.275.113-.525.294-.706z" fill="#0393d4"/></svg>